<svg viewBox="0 0 18 18" fill="none" xmlns="http://www.w3.org/2000/svg">
    <path d="M9.10898 0.309377C13.9746 0.284767 17.9789 4.33125 17.8629 9.27773C17.7574 13.9922 13.8516 17.8945 8.98593 17.8348C4.18359 17.775 0.221481 13.7742 0.348043 8.83477C0.467574 4.14141 4.33828 0.288283 9.10898 0.309377ZM1.41328 9.08438C1.45547 13.4895 5.02734 16.882 9.24609 16.8047C13.3348 16.7309 16.7941 13.3945 16.7906 9.0668C16.7906 4.6582 13.1871 1.25508 8.95781 1.33594C4.86562 1.4168 1.43789 4.75664 1.41328 9.08438Z" fill="#828282"/>
    <path d="M14.1328 5.29456C14.1328 7.79416 14.1328 10.2832 14.1328 12.7828C10.7894 12.7828 7.44607 12.7828 4.09216 12.7828C4.09216 10.2938 4.09216 7.8012 4.09216 5.29456C7.42849 5.29456 10.7718 5.29456 14.1328 5.29456ZM9.13357 9.86838C8.89802 9.67151 8.67302 9.49221 8.46208 9.29885C8.36365 9.20745 8.30036 9.21448 8.19841 9.29534C7.37224 9.96682 6.53904 10.6313 5.71287 11.3028C5.66716 11.3379 5.63904 11.4188 5.63552 11.4785C5.62849 11.8231 5.63904 12.1711 5.62849 12.5156C5.62146 12.6774 5.67068 12.7231 5.8324 12.7196C8.05427 12.7125 10.2726 12.716 12.4945 12.716C12.5543 12.716 12.6176 12.716 12.6879 12.716C12.6879 12.2379 12.6914 11.7844 12.6843 11.3344C12.6843 11.2922 12.6527 11.2324 12.614 11.2078C11.6965 10.5539 10.7718 9.90002 9.84724 9.24612C9.61169 9.45354 9.37966 9.65393 9.13357 9.86838ZM9.11599 8.39885C10.1566 7.38987 11.1797 6.39495 12.2379 5.36838C10.1566 5.36838 8.13865 5.36838 6.12068 5.36838C7.11208 6.37034 8.09294 7.36526 9.11599 8.39885ZM12.6773 10.9793C12.6773 9.57307 12.6773 8.19495 12.6773 6.79221C11.7773 7.57268 10.8949 8.33557 10.0054 9.10901C10.909 9.74182 11.7843 10.3535 12.6773 10.9793ZM8.1738 9.05276C7.33357 8.33909 6.5074 7.63596 5.6531 6.90823C5.6531 8.31096 5.6531 9.67151 5.6531 11.0672C6.50388 10.3887 7.33357 9.72424 8.1738 9.05276Z" fill="#828282"/>
</svg>