<svg viewBox="0 0 18 18" fill="none" xmlns="http://www.w3.org/2000/svg">
    <path d="M9.10195 17.8312C4.23281 17.8523 0.232027 13.8023 0.348042 8.85937C0.453511 4.14843 4.35937 0.246088 9.22499 0.305853C14.0238 0.365619 17.993 4.36288 17.8629 9.30937C17.7434 13.9992 13.8727 17.8523 9.10195 17.8312ZM16.7976 9.07031C16.7625 4.66875 13.2047 1.28671 9.01054 1.33593C4.91132 1.38515 1.41328 4.72499 1.42031 9.08085C1.42734 13.4824 5.01328 16.8609 9.20742 16.8047C13.2996 16.752 16.7625 13.4191 16.7976 9.07031Z" fill="#828282"/>
    <path d="M8.49726 11.3062C8.40937 11.6859 8.30742 12.0621 8.23008 12.4418C8.04375 13.3804 7.70625 14.2558 7.17187 15.0504C7.08047 15.184 6.98906 15.3211 6.89062 15.4511C6.86601 15.4828 6.79922 15.5285 6.78515 15.5179C6.74648 15.4933 6.70429 15.4406 6.70429 15.3984C6.67265 14.8078 6.61992 14.2207 6.62695 13.6301C6.6375 12.8461 6.88359 12.1008 7.04531 11.3414C7.14726 10.8633 7.24922 10.3816 7.35117 9.90349C7.40742 9.6363 7.48125 9.36912 7.52343 9.09841C7.54453 8.97185 7.54453 8.82771 7.50586 8.70818C7.29492 8.04724 7.2914 7.39685 7.56914 6.75701C7.70625 6.43708 7.91367 6.16638 8.25117 6.02224C8.84531 5.76912 9.43242 6.12068 9.49922 6.77107C9.54844 7.23162 9.43593 7.66404 9.3164 8.09998C9.17929 8.61326 9.01406 9.12302 8.92617 9.64333C8.79258 10.4379 9.46406 11.025 10.248 10.8492C10.7895 10.7297 11.127 10.3605 11.3941 9.91755C11.7387 9.33748 11.9285 8.70115 11.9848 8.03318C12.0164 7.64998 12.048 7.26326 12.0375 6.87654C12.0199 6.29646 11.8406 5.76208 11.468 5.30857C11.0988 4.86208 10.6172 4.59138 10.0547 4.47888C9.36914 4.34177 8.69765 4.38396 8.04375 4.65818C7.42851 4.91482 6.95742 5.32966 6.6164 5.89216C6.16992 6.62693 6.00468 7.42498 6.12773 8.27927C6.17343 8.59919 6.28945 8.90154 6.50039 9.15466C6.62343 9.30584 6.67265 9.46052 6.59883 9.65388C6.54609 9.79451 6.53203 9.9492 6.49687 10.0969C6.44062 10.3465 6.30703 10.3992 6.07851 10.2867C5.40351 9.94919 5.10117 9.34802 4.92187 8.66248C4.77422 8.08591 4.76718 7.4988 4.86562 6.91873C4.99218 6.17341 5.30156 5.4949 5.77265 4.89724C6.31406 4.21169 6.99961 3.73005 7.82226 3.45232C8.63437 3.17458 9.47461 3.10427 10.3148 3.25544C11.3871 3.4488 12.266 3.99021 12.9059 4.88669C13.5281 5.76208 13.7531 6.74294 13.6547 7.80466C13.602 8.35662 13.5141 8.90505 13.3312 9.4324C13.0254 10.3219 12.5613 11.1023 11.7492 11.6191C11.4785 11.7914 11.1691 11.9144 10.8598 12.0058C10.6137 12.0797 10.343 12.0972 10.0828 12.0972C9.46758 12.0902 8.95781 11.8441 8.58515 11.3449C8.57109 11.3273 8.56758 11.2992 8.56054 11.2781C8.53593 11.2886 8.51484 11.2957 8.49726 11.3062Z" fill="#828282"/>
</svg>
