<svg viewBox="0 0 19 20" fill="none" xmlns="http://www.w3.org/2000/svg">
<path d="M5.9005 2.4219C5.97361 2.42187 6.04601 2.43699 6.11357 2.46642C6.18113 2.49584 6.24252 2.53899 6.29423 2.59339L13.1554 9.81604C13.2597 9.92592 13.3184 10.0749 13.3184 10.2303C13.3184 10.3857 13.2597 10.5347 13.1554 10.6446L6.29423 17.8672C6.24255 17.9216 6.18119 17.9648 6.11366 17.9943C6.04612 18.0237 5.97374 18.0389 5.90063 18.0389C5.82753 18.039 5.75513 18.0238 5.68759 17.9944C5.62004 17.965 5.55866 17.9218 5.50695 17.8674C5.45525 17.813 5.41423 17.7484 5.38624 17.6773C5.35825 17.6062 5.34383 17.53 5.34381 17.4531C5.34379 17.3761 5.35818 17.2999 5.38614 17.2288C5.4141 17.1577 5.45509 17.0931 5.50677 17.0387L11.9746 10.2305L5.50677 3.42229C5.42887 3.34035 5.37582 3.23592 5.35432 3.12222C5.33282 3.00853 5.34384 2.89067 5.38599 2.78358C5.42814 2.67648 5.49953 2.58495 5.59112 2.52057C5.6827 2.45619 5.79037 2.42185 5.9005 2.4219Z" fill="#A4A4A4"/>
</svg>