<svg viewBox="0 0 19 20" fill="none" xmlns="http://www.w3.org/2000/svg">
<path d="M13.0995 18.2031C13.0264 18.2031 12.954 18.188 12.8864 18.1586C12.8189 18.1292 12.7575 18.086 12.7058 18.0316L5.84462 10.809C5.74026 10.6991 5.68164 10.5501 5.68164 10.3947C5.68164 10.2393 5.74026 10.0903 5.84462 9.98044L12.7058 2.75779C12.7575 2.70336 12.8188 2.66018 12.8863 2.63072C12.9539 2.60125 13.0263 2.58608 13.0994 2.58606C13.1725 2.58604 13.2449 2.60118 13.3124 2.63061C13.38 2.66004 13.4413 2.70319 13.493 2.75759C13.5447 2.81199 13.5858 2.87658 13.6138 2.94767C13.6418 3.01876 13.6562 3.09496 13.6562 3.17191C13.6562 3.24886 13.6418 3.32506 13.6139 3.39617C13.5859 3.46727 13.5449 3.53188 13.4932 3.5863L7.02544 10.3945L13.4932 17.2027C13.5711 17.2847 13.6242 17.3891 13.6457 17.5028C13.6672 17.6165 13.6562 17.7343 13.614 17.8414C13.5719 17.9485 13.5005 18.0401 13.4089 18.1044C13.3173 18.1688 13.2096 18.2032 13.0995 18.2031Z" fill="#A4A4A4"/>
</svg>