<svg viewBox="0 0 19 18" fill="none" xmlns="http://www.w3.org/2000/svg">
    <g clip-path="url(#clip0)">
        <path d="M6.69942 10.2H15.0413C15.2069 10.2 15.3392 10.3338 15.3392 10.5C15.3392 10.6662 15.2069 10.8 15.0413 10.8H6.69942C6.53496 10.8 6.40149 10.6662 6.40149 10.5C6.40149 10.3338 6.53496 10.2 6.69942 10.2ZM6.10357 7.8H15.6371C15.8028 7.8 15.9351 7.9338 15.9351 8.1C15.9351 8.2662 15.8028 8.4 15.6371 8.4H6.10357C5.93912 8.4 5.80564 8.2662 5.80564 8.1C5.80564 7.9338 5.93912 7.8 6.10357 7.8ZM0.74094 3C0.351851 3 0.341722 3.6 0.74094 3.6H2.88599C2.93247 3.8076 3.26733 5.286 3.66774 7.0416C4.09497 8.9172 4.53291 11.4336 4.62468 11.7774C4.70333 12.0738 4.77662 12.4104 4.9941 12.7038C5.2098 12.9966 5.58995 13.1994 6.10357 13.1994H15.6371C16.1496 13.1994 16.5309 12.9966 16.7472 12.7038C16.9641 12.4098 17.0374 12.0738 17.1166 11.7768C17.2745 11.181 18.0819 7.6104 18.2428 7.0056C18.3333 6.666 18.3631 6.312 18.2559 5.9916C18.1486 5.6712 17.8269 5.3988 17.4247 5.3988H5.50772C5.11863 5.3988 5.11446 5.9988 5.50772 5.9988H17.4247C17.6183 5.9988 17.6428 6.0408 17.691 6.1848C17.7387 6.3276 17.7363 6.5892 17.6672 6.8496C17.5081 7.4448 16.7019 11.0166 16.541 11.6214C16.4606 11.925 16.3849 12.1884 16.2693 12.345C16.1537 12.5022 16.0191 12.5994 15.6377 12.5994H6.10417C5.72282 12.5994 5.58816 12.5022 5.47257 12.345C5.35638 12.189 5.2807 11.925 5.19967 11.622C5.13174 11.3664 4.67532 8.7828 4.24929 6.9084C3.82207 5.0334 3.4151 3.2334 3.4151 3.2334C3.38531 3.096 3.26435 3 3.12433 3H0.74094ZM14.4454 13.8C13.6273 13.8 12.9558 14.475 12.9558 15.3C12.9558 16.125 13.6273 16.8 14.4454 16.8C15.2653 16.8 15.9351 16.125 15.9351 15.3C15.9351 14.475 15.2659 13.8 14.4454 13.8ZM14.4454 14.4C14.9436 14.4 15.3392 14.7996 15.3392 15.3C15.3392 15.8004 14.9436 16.2 14.4454 16.2C13.9491 16.2 13.5517 15.8004 13.5517 15.3C13.5517 14.7996 13.9491 14.4 14.4454 14.4ZM7.29526 13.8C6.47776 13.8 5.80564 14.475 5.80564 15.3C5.80564 16.125 6.47717 16.8 7.29526 16.8C8.11515 16.8 8.78488 16.125 8.78488 15.3C8.78488 14.475 8.11575 13.8 7.29526 13.8ZM7.29526 14.4C7.79339 14.4 8.18904 14.7996 8.18904 15.3C8.18904 15.8004 7.79339 16.2 7.29526 16.2C6.79892 16.2 6.40149 15.8004 6.40149 15.3C6.40149 14.7996 6.79892 14.4 7.29526 14.4Z" fill="#444444"/>
    </g>
    <defs>
        <clipPath id="clip0">
            <rect width="17.8754" height="18" fill="white" transform="translate(0.442871)"/>
        </clipPath>
    </defs>
</svg>