<svg viewBox="0 0 15 16" fill="none" xmlns="http://www.w3.org/2000/svg">
<g clip-path="url(#clip0)">
<path d="M13.3537 4.0271C13.3267 3.99096 13.2929 3.96049 13.2541 3.93742C13.2154 3.91435 13.1725 3.89914 13.1279 3.89266C13.0833 3.88618 13.0378 3.88855 12.9941 3.89965C12.9504 3.91074 12.9093 3.93034 12.8732 3.95732L7.33749 8.08935C7.31769 8.1042 7.29361 8.11223 7.26886 8.11223C7.2441 8.11223 7.22002 8.1042 7.20022 8.08935L1.77321 3.93902C1.73738 3.91168 1.69652 3.89166 1.65295 3.88011C1.60938 3.86856 1.56397 3.86571 1.5193 3.87171C1.47463 3.87771 1.43158 3.89245 1.39261 3.91509C1.35364 3.93773 1.31951 3.96782 1.29217 4.00365C1.26483 4.03948 1.24481 4.08035 1.23326 4.12391C1.22171 4.16748 1.21886 4.21289 1.22486 4.25756C1.23086 4.30223 1.2456 4.34528 1.26824 4.38425C1.29088 4.42322 1.32097 4.45735 1.3568 4.48469L5.62382 7.74845L1.40371 10.9287C1.36735 10.9558 1.33669 10.9898 1.31348 11.0288C1.29027 11.0678 1.27496 11.1109 1.26843 11.1558C1.26189 11.2007 1.26427 11.2464 1.27541 11.2904C1.28654 11.3343 1.30623 11.3757 1.33335 11.412C1.36047 11.4484 1.39448 11.479 1.43344 11.5023C1.47241 11.5255 1.51556 11.5408 1.56044 11.5473C1.60533 11.5538 1.65105 11.5515 1.69502 11.5403C1.73898 11.5292 1.78032 11.5095 1.81668 11.4824L6.19009 8.18087L6.78267 8.63846C6.92084 8.74423 7.0897 8.80211 7.2637 8.80335C7.4377 8.80458 7.60737 8.74911 7.74704 8.64532L8.36936 8.18087L12.7942 11.4824C12.8304 11.5093 12.8715 11.5289 12.9152 11.54C12.9589 11.5511 13.0043 11.5535 13.0489 11.547C13.0935 11.5405 13.1365 11.5253 13.1752 11.5023C13.2139 11.4792 13.2477 11.4487 13.2747 11.4126C13.3017 11.3765 13.3213 11.3354 13.3324 11.2917C13.3434 11.248 13.3458 11.2025 13.3393 11.1579C13.3329 11.1133 13.3176 11.0704 13.2946 11.0317C13.2715 10.9929 13.2411 10.9591 13.2049 10.9321L8.94249 7.74731L13.2839 4.50414C13.3559 4.44977 13.4036 4.36922 13.4166 4.27994C13.4297 4.19066 13.4071 4.09983 13.3537 4.0271Z" fill="#444444"/>
<path d="M12.9269 2.55933H1.71596C1.26086 2.55933 0.824398 2.74011 0.502593 3.06192C0.180788 3.38372 0 3.82019 0 4.27529L0 11.1391C0 11.5942 0.180788 12.0307 0.502593 12.3525C0.824398 12.6743 1.26086 12.8551 1.71596 12.8551H12.9269C13.382 12.8551 13.8185 12.6743 14.1403 12.3525C14.4621 12.0307 14.6429 11.5942 14.6429 11.1391V4.27529C14.6429 3.82019 14.4621 3.38372 14.1403 3.06192C13.8185 2.74011 13.382 2.55933 12.9269 2.55933ZM13.9565 11.1391C13.9565 11.4122 13.848 11.6741 13.6549 11.8671C13.4618 12.0602 13.2 12.1687 12.9269 12.1687H1.71596C1.4429 12.1687 1.18102 12.0602 0.98794 11.8671C0.794857 11.6741 0.686384 11.4122 0.686384 11.1391V4.27529C0.686384 4.00223 0.794857 3.74035 0.98794 3.54727C1.18102 3.35418 1.4429 3.24571 1.71596 3.24571H12.9269C13.2 3.24571 13.4618 3.35418 13.6549 3.54727C13.848 3.74035 13.9565 4.00223 13.9565 4.27529V11.1391Z" fill="#444444"/>
</g>
<defs>
<clipPath id="clip0">
<rect width="14.6429" height="14.6429" fill="white" transform="translate(0 0.385742)"/>
</clipPath>
</defs>
</svg>
