<svg viewBox="0 0 320 82" fill="none" xmlns="http://www.w3.org/2000/svg">
    <path d="M7.01012 52C6.49812 52 6.05012 51.824 5.66612 51.472C5.31412 51.12 5.13812 50.672 5.13812 50.128V16.384C5.13812 15.872 5.31412 15.44 5.66612 15.088C6.05012 14.704 6.49812 14.512 7.01012 14.512C7.52212 14.512 7.95412 14.704 8.30612 15.088C8.69012 15.44 8.88212 15.872 8.88212 16.384V48.448H27.6501C28.1621 48.448 28.5941 48.624 28.9461 48.976C29.3301 49.296 29.5221 49.712 29.5221 50.224C29.5221 50.736 29.3301 51.168 28.9461 51.52C28.5941 51.84 28.1621 52 27.6501 52H7.01012ZM55.0011 52.768C52.0891 52.768 49.4971 52.208 47.2251 51.088C44.9851 49.968 43.2251 48.416 41.9451 46.432C40.6971 44.448 40.0731 42.176 40.0731 39.616V16.384C40.0731 15.84 40.2491 15.392 40.6011 15.04C40.9531 14.688 41.4011 14.512 41.9451 14.512C42.4891 14.512 42.9371 14.688 43.2891 15.04C43.6411 15.392 43.8171 15.84 43.8171 16.384V39.616C43.8171 41.504 44.2811 43.168 45.2091 44.608C46.1691 46.048 47.4971 47.184 49.1931 48.016C50.8891 48.816 52.8251 49.216 55.0011 49.216C57.1451 49.216 59.0491 48.816 60.7131 48.016C62.3771 47.184 63.6731 46.048 64.6011 44.608C65.5611 43.168 66.0411 41.504 66.0411 39.616V16.384C66.0411 15.84 66.2171 15.392 66.5691 15.04C66.9211 14.688 67.3691 14.512 67.9131 14.512C68.4891 14.512 68.9371 14.688 69.2571 15.04C69.6091 15.392 69.7851 15.84 69.7851 16.384V39.616C69.7851 42.176 69.1451 44.448 67.8651 46.432C66.6171 48.416 64.8731 49.968 62.6331 51.088C60.4251 52.208 57.8811 52.768 55.0011 52.768ZM100.809 52.48C98.2172 52.48 95.7852 51.984 93.5132 50.992C91.2732 50 89.2892 48.624 87.5612 46.864C85.8652 45.072 84.5372 43.024 83.5772 40.72C82.6172 38.384 82.1372 35.888 82.1372 33.232C82.1372 30.608 82.6012 28.144 83.5292 25.84C84.4892 23.504 85.8172 21.456 87.5132 19.696C89.2412 17.936 91.2252 16.56 93.4652 15.568C95.7372 14.544 98.1852 14.032 100.809 14.032C103.113 14.032 105.209 14.368 107.097 15.04C108.985 15.712 110.809 16.784 112.569 18.256C112.857 18.48 113.017 18.752 113.049 19.072C113.113 19.36 113.081 19.648 112.953 19.936C112.825 20.192 112.633 20.384 112.377 20.512C112.313 20.768 112.153 20.96 111.897 21.088C111.641 21.216 111.337 21.264 110.985 21.232C110.665 21.2 110.345 21.056 110.025 20.8C108.777 19.712 107.417 18.912 105.945 18.4C104.473 17.856 102.761 17.584 100.809 17.584C98.7292 17.584 96.7772 18 94.9532 18.832C93.1612 19.664 91.5772 20.8 90.2012 22.24C88.8252 23.68 87.7372 25.344 86.9372 27.232C86.1692 29.12 85.7852 31.12 85.7852 33.232C85.7852 35.408 86.1692 37.44 86.9372 39.328C87.7372 41.216 88.8252 42.88 90.2012 44.32C91.5772 45.76 93.1612 46.896 94.9532 47.728C96.7772 48.528 98.7292 48.928 100.809 48.928C102.569 48.928 104.233 48.64 105.801 48.064C107.369 47.488 108.857 46.656 110.265 45.568C110.649 45.248 111.049 45.12 111.465 45.184C111.913 45.248 112.297 45.44 112.617 45.76C112.937 46.08 113.097 46.496 113.097 47.008C113.097 47.264 113.049 47.504 112.953 47.728C112.889 47.92 112.761 48.128 112.569 48.352C110.937 49.856 109.113 50.928 107.097 51.568C105.081 52.176 102.985 52.48 100.809 52.48ZM127.424 52C126.912 52 126.464 51.824 126.08 51.472C125.728 51.088 125.552 50.64 125.552 50.128V16.384C125.552 15.872 125.728 15.44 126.08 15.088C126.464 14.704 126.912 14.512 127.424 14.512C127.936 14.512 128.368 14.704 128.72 15.088C129.104 15.44 129.296 15.872 129.296 16.384V32.704L146.816 15.184C147.072 14.928 147.312 14.752 147.536 14.656C147.76 14.56 148.016 14.512 148.304 14.512C148.88 14.512 149.312 14.688 149.6 15.04C149.888 15.392 150.016 15.824 149.984 16.336C149.984 16.816 149.792 17.28 149.408 17.728L136.256 30.88L149.552 49.024C149.84 49.44 149.952 49.888 149.888 50.368C149.856 50.816 149.68 51.2 149.36 51.52C149.04 51.84 148.656 52 148.208 52C147.504 52 146.976 51.728 146.624 51.184L133.568 33.52L129.296 37.84V50.128C129.296 50.64 129.104 51.088 128.72 51.472C128.368 51.824 127.936 52 127.424 52ZM171.633 52.48C169.585 52.48 167.681 52.192 165.921 51.616C164.193 51.008 162.689 50.16 161.409 49.072C160.129 47.984 159.153 46.72 158.48 45.28C158.225 44.768 158.209 44.304 158.433 43.888C158.689 43.44 159.105 43.136 159.681 42.976C160.129 42.848 160.561 42.896 160.977 43.12C161.425 43.344 161.761 43.68 161.985 44.128C162.465 45.056 163.169 45.888 164.097 46.624C165.025 47.36 166.129 47.936 167.409 48.352C168.689 48.736 170.097 48.928 171.633 48.928C173.329 48.928 174.833 48.656 176.145 48.112C177.457 47.536 178.481 46.72 179.217 45.664C179.985 44.576 180.369 43.264 180.369 41.728C180.369 39.776 179.649 38.096 178.209 36.688C176.769 35.28 174.513 34.384 171.441 34C167.697 33.552 164.769 32.4 162.657 30.544C160.545 28.656 159.489 26.352 159.489 23.632C159.489 21.68 160.001 19.984 161.025 18.544C162.081 17.104 163.521 16 165.345 15.232C167.169 14.432 169.265 14.032 171.633 14.032C173.393 14.032 174.993 14.32 176.433 14.896C177.873 15.44 179.121 16.176 180.177 17.104C181.265 18 182.145 18.992 182.817 20.08C183.137 20.592 183.233 21.088 183.105 21.568C183.009 22.048 182.737 22.416 182.289 22.672C181.809 22.896 181.313 22.928 180.801 22.768C180.321 22.608 179.953 22.304 179.697 21.856C179.217 21.12 178.609 20.432 177.873 19.792C177.169 19.12 176.305 18.592 175.281 18.208C174.257 17.824 173.025 17.616 171.585 17.584C169.057 17.584 167.025 18.128 165.489 19.216C163.953 20.272 163.185 21.824 163.185 23.872C163.185 24.96 163.473 25.968 164.049 26.896C164.625 27.792 165.569 28.576 166.881 29.248C168.225 29.888 170.017 30.368 172.257 30.688C176.257 31.264 179.217 32.496 181.137 34.384C183.089 36.24 184.065 38.672 184.065 41.68C184.065 43.408 183.745 44.944 183.105 46.288C182.497 47.632 181.617 48.768 180.465 49.696C179.345 50.592 178.017 51.28 176.481 51.76C174.977 52.24 173.361 52.48 171.633 52.48ZM198.326 52C197.782 52 197.334 51.824 196.982 51.472C196.63 51.12 196.454 50.672 196.454 50.128V16.384C196.454 15.84 196.63 15.392 196.982 15.04C197.334 14.688 197.782 14.512 198.326 14.512C198.87 14.512 199.318 14.688 199.67 15.04C200.022 15.392 200.198 15.84 200.198 16.384V31.36H223.622V16.384C223.622 15.84 223.798 15.392 224.15 15.04C224.502 14.688 224.95 14.512 225.494 14.512C226.038 14.512 226.486 14.688 226.838 15.04C227.19 15.392 227.366 15.84 227.366 16.384V50.128C227.366 50.672 227.19 51.12 226.838 51.472C226.486 51.824 226.038 52 225.494 52C224.95 52 224.502 51.824 224.15 51.472C223.798 51.12 223.622 50.672 223.622 50.128V34.72H200.198V50.128C200.198 50.672 200.022 51.12 199.67 51.472C199.318 51.824 198.87 52 198.326 52ZM243.386 52C242.842 52 242.394 51.824 242.042 51.472C241.69 51.12 241.514 50.672 241.514 50.128V16.384C241.514 15.84 241.69 15.392 242.042 15.04C242.394 14.688 242.842 14.512 243.386 14.512C243.93 14.512 244.378 14.688 244.73 15.04C245.082 15.392 245.258 15.84 245.258 16.384V50.128C245.258 50.672 245.082 51.12 244.73 51.472C244.378 51.824 243.93 52 243.386 52ZM261.305 52C260.793 52 260.345 51.824 259.961 51.472C259.609 51.088 259.433 50.64 259.433 50.128V16.384C259.433 15.84 259.609 15.392 259.961 15.04C260.345 14.688 260.793 14.512 261.305 14.512C262.073 14.512 262.633 14.832 262.985 15.472L279.161 47.632H277.529L293.417 15.472C293.801 14.832 294.361 14.512 295.097 14.512C295.609 14.512 296.041 14.688 296.393 15.04C296.745 15.392 296.921 15.84 296.921 16.384V50.128C296.921 50.64 296.745 51.088 296.393 51.472C296.041 51.824 295.609 52 295.097 52C294.553 52 294.089 51.824 293.705 51.472C293.353 51.088 293.177 50.64 293.177 50.128V21.232L293.993 21.28L279.833 50.224C279.481 50.832 278.937 51.136 278.201 51.136C277.401 51.136 276.825 50.752 276.473 49.984L262.217 21.472L263.177 21.232V50.128C263.177 50.64 262.985 51.088 262.601 51.472C262.249 51.824 261.817 52 261.305 52ZM312.974 52C312.43 52 311.982 51.824 311.63 51.472C311.278 51.12 311.102 50.672 311.102 50.128V16.384C311.102 15.84 311.278 15.392 311.63 15.04C311.982 14.688 312.43 14.512 312.974 14.512C313.518 14.512 313.966 14.688 314.318 15.04C314.67 15.392 314.846 15.84 314.846 16.384V50.128C314.846 50.672 314.67 51.12 314.318 51.472C313.966 51.824 313.518 52 312.974 52Z" fill="#FF7F50"/>
    <path d="M5.62223 78.212C5.46623 78.212 5.33423 78.158 5.22623 78.05C5.13023 77.954 5.08223 77.828 5.08223 77.672V68.978C5.10623 68.03 5.33423 67.19 5.76623 66.458C6.21023 65.714 6.81023 65.126 7.56623 64.694C8.32223 64.262 9.16823 64.046 10.1042 64.046C11.0642 64.046 11.9222 64.268 12.6782 64.712C13.4462 65.144 14.0462 65.744 14.4782 66.512C14.9222 67.268 15.1442 68.126 15.1442 69.086C15.1442 70.034 14.9222 70.892 14.4782 71.66C14.0462 72.416 13.4462 73.016 12.6782 73.46C11.9222 73.892 11.0642 74.108 10.1042 74.108C9.24023 74.108 8.46023 73.922 7.76423 73.55C7.08023 73.178 6.54623 72.68 6.16223 72.056V77.672C6.16223 77.828 6.11423 77.954 6.01823 78.05C5.92223 78.158 5.79023 78.212 5.62223 78.212ZM10.1042 73.1C10.8602 73.1 11.5322 72.926 12.1202 72.578C12.7202 72.218 13.1942 71.738 13.5422 71.138C13.8902 70.526 14.0642 69.842 14.0642 69.086C14.0642 68.318 13.8902 67.634 13.5422 67.034C13.1942 66.422 12.7202 65.942 12.1202 65.594C11.5322 65.234 10.8602 65.054 10.1042 65.054C9.36023 65.054 8.68823 65.234 8.08823 65.594C7.48823 65.942 7.01423 66.422 6.66623 67.034C6.33023 67.634 6.16223 68.318 6.16223 69.086C6.16223 69.842 6.33023 70.526 6.66623 71.138C7.01423 71.738 7.48823 72.218 8.08823 72.578C8.68823 72.926 9.36023 73.1 10.1042 73.1ZM38.67 74.09C37.722 74.09 36.876 73.88 36.132 73.46C35.4 73.028 34.824 72.434 34.404 71.678C33.984 70.922 33.774 70.058 33.774 69.086C33.774 68.102 33.972 67.238 34.368 66.494C34.764 65.738 35.31 65.144 36.006 64.712C36.702 64.28 37.5 64.064 38.4 64.064C39.288 64.064 40.074 64.274 40.758 64.694C41.442 65.102 41.976 65.672 42.36 66.404C42.744 67.124 42.936 67.958 42.936 68.906C42.936 69.062 42.888 69.188 42.792 69.284C42.696 69.368 42.57 69.41 42.414 69.41H34.872C34.908 70.13 35.094 70.766 35.43 71.318C35.766 71.87 36.21 72.302 36.762 72.614C37.326 72.926 37.962 73.082 38.67 73.082C39.138 73.082 39.606 73.004 40.074 72.848C40.554 72.68 40.932 72.464 41.208 72.2C41.304 72.104 41.418 72.056 41.55 72.056C41.694 72.044 41.814 72.08 41.91 72.164C42.042 72.272 42.108 72.392 42.108 72.524C42.12 72.656 42.066 72.776 41.946 72.884C41.562 73.232 41.058 73.52 40.434 73.748C39.822 73.976 39.234 74.09 38.67 74.09ZM38.4 65.072C37.776 65.072 37.212 65.216 36.708 65.504C36.204 65.792 35.79 66.194 35.466 66.71C35.154 67.214 34.962 67.802 34.89 68.474H41.892C41.808 67.466 41.448 66.65 40.812 66.026C40.176 65.39 39.372 65.072 38.4 65.072ZM65.9011 74.108C64.9411 74.108 64.0771 73.892 63.3091 73.46C62.5531 73.016 61.9531 72.416 61.5091 71.66C61.0771 70.892 60.8611 70.034 60.8611 69.086C60.8611 68.126 61.0771 67.268 61.5091 66.512C61.9531 65.744 62.5531 65.144 63.3091 64.712C64.0771 64.268 64.9411 64.046 65.9011 64.046C66.8611 64.046 67.7191 64.268 68.4751 64.712C69.2311 65.144 69.8251 65.744 70.2571 66.512C70.7011 67.268 70.9231 68.126 70.9231 69.086V73.46C70.9231 73.616 70.8751 73.748 70.7791 73.856C70.6831 73.952 70.5511 74 70.3831 74C70.2271 74 70.0951 73.952 69.9871 73.856C69.8911 73.748 69.8431 73.616 69.8431 73.46V72.056C69.4471 72.68 68.9071 73.178 68.2231 73.55C67.5391 73.922 66.7651 74.108 65.9011 74.108ZM65.9011 73.1C66.6571 73.1 67.3291 72.926 67.9171 72.578C68.5171 72.218 68.9851 71.738 69.3211 71.138C69.6691 70.526 69.8431 69.842 69.8431 69.086C69.8431 68.318 69.6691 67.634 69.3211 67.034C68.9851 66.422 68.5171 65.942 67.9171 65.594C67.3291 65.234 66.6571 65.054 65.9011 65.054C65.1571 65.054 64.4851 65.234 63.8851 65.594C63.2851 65.942 62.8111 66.422 62.4631 67.034C62.1151 67.634 61.9411 68.318 61.9411 69.086C61.9411 69.842 62.1151 70.526 62.4631 71.138C62.8111 71.738 63.2851 72.218 63.8851 72.578C64.4851 72.926 65.1571 73.1 65.9011 73.1ZM90.6279 74C90.4719 74 90.3399 73.952 90.2319 73.856C90.1359 73.748 90.0879 73.616 90.0879 73.46V64.694C90.0879 64.526 90.1359 64.394 90.2319 64.298C90.3399 64.202 90.4719 64.154 90.6279 64.154C90.7959 64.154 90.9279 64.202 91.0239 64.298C91.1199 64.394 91.1679 64.526 91.1679 64.694V65.81C91.5159 65.258 91.9539 64.826 92.4819 64.514C93.0219 64.202 93.6159 64.046 94.2639 64.046C94.7199 64.046 95.0739 64.1 95.3259 64.208C95.5779 64.316 95.6739 64.508 95.6139 64.784C95.5779 64.964 95.4939 65.072 95.3619 65.108C95.2299 65.144 95.0679 65.15 94.8759 65.126C94.6959 65.09 94.4919 65.072 94.2639 65.072C93.6639 65.072 93.1299 65.198 92.6619 65.45C92.1939 65.702 91.8279 66.05 91.5639 66.494C91.2999 66.926 91.1679 67.424 91.1679 67.988V73.46C91.1679 73.616 91.1199 73.748 91.0239 73.856C90.9279 73.952 90.7959 74 90.6279 74ZM116.431 74C115.747 74 115.183 73.724 114.739 73.172C114.307 72.62 114.091 71.906 114.091 71.03V60.482C114.091 60.314 114.139 60.182 114.235 60.086C114.343 59.99 114.475 59.942 114.631 59.942C114.799 59.942 114.931 59.99 115.027 60.086C115.123 60.182 115.171 60.314 115.171 60.482V71.03C115.171 71.582 115.285 72.038 115.513 72.398C115.753 72.746 116.059 72.92 116.431 72.92H116.881C117.181 72.92 117.331 73.1 117.331 73.46C117.331 73.616 117.283 73.748 117.187 73.856C117.091 73.952 116.959 74 116.791 74H116.431ZM154.834 78.212C154.678 78.212 154.546 78.158 154.438 78.05C154.33 77.954 154.276 77.828 154.276 77.672C154.276 77.504 154.33 77.366 154.438 77.258C154.546 77.162 154.678 77.114 154.834 77.114C155.446 77.114 155.98 76.982 156.436 76.718C156.904 76.454 157.27 76.088 157.534 75.62C157.798 75.152 157.93 74.618 157.93 74.018V64.694C157.93 64.526 157.978 64.394 158.074 64.298C158.182 64.202 158.314 64.154 158.47 64.154C158.638 64.154 158.77 64.202 158.866 64.298C158.974 64.394 159.028 64.526 159.028 64.694V74.018C159.028 74.834 158.848 75.554 158.488 76.178C158.128 76.814 157.63 77.312 156.994 77.672C156.37 78.032 155.65 78.212 154.834 78.212ZM158.452 62.084C158.224 62.084 158.026 62.006 157.858 61.85C157.702 61.682 157.624 61.478 157.624 61.238C157.624 60.962 157.708 60.758 157.876 60.626C158.056 60.482 158.254 60.41 158.47 60.41C158.674 60.41 158.86 60.482 159.028 60.626C159.208 60.758 159.298 60.962 159.298 61.238C159.298 61.478 159.214 61.682 159.046 61.85C158.89 62.006 158.692 62.084 158.452 62.084ZM182.736 74.09C181.788 74.09 180.942 73.88 180.198 73.46C179.466 73.028 178.89 72.434 178.47 71.678C178.05 70.922 177.84 70.058 177.84 69.086C177.84 68.102 178.038 67.238 178.434 66.494C178.83 65.738 179.376 65.144 180.072 64.712C180.768 64.28 181.566 64.064 182.466 64.064C183.354 64.064 184.14 64.274 184.824 64.694C185.508 65.102 186.042 65.672 186.426 66.404C186.81 67.124 187.002 67.958 187.002 68.906C187.002 69.062 186.954 69.188 186.858 69.284C186.762 69.368 186.636 69.41 186.48 69.41H178.938C178.974 70.13 179.16 70.766 179.496 71.318C179.832 71.87 180.276 72.302 180.828 72.614C181.392 72.926 182.028 73.082 182.736 73.082C183.204 73.082 183.672 73.004 184.14 72.848C184.62 72.68 184.998 72.464 185.274 72.2C185.37 72.104 185.484 72.056 185.616 72.056C185.76 72.044 185.88 72.08 185.976 72.164C186.108 72.272 186.174 72.392 186.174 72.524C186.186 72.656 186.132 72.776 186.012 72.884C185.628 73.232 185.124 73.52 184.5 73.748C183.888 73.976 183.3 74.09 182.736 74.09ZM182.466 65.072C181.842 65.072 181.278 65.216 180.774 65.504C180.27 65.792 179.856 66.194 179.532 66.71C179.22 67.214 179.028 67.802 178.956 68.474H185.958C185.874 67.466 185.514 66.65 184.878 66.026C184.242 65.39 183.438 65.072 182.466 65.072ZM207.663 74C207.399 74 207.231 73.886 207.159 73.658L204.243 64.928C204.135 64.412 204.273 64.154 204.657 64.154C204.753 64.154 204.849 64.184 204.945 64.244C205.041 64.292 205.113 64.37 205.161 64.478L207.699 72.146L210.039 64.586C210.123 64.298 210.303 64.154 210.579 64.154C210.843 64.154 211.023 64.298 211.119 64.586L213.477 72.002L215.979 64.478C216.075 64.262 216.243 64.154 216.483 64.154C216.699 64.154 216.843 64.238 216.915 64.406C216.999 64.574 216.999 64.748 216.915 64.928L214.017 73.658C213.945 73.886 213.771 74 213.495 74C213.375 74 213.267 73.97 213.171 73.91C213.075 73.85 213.015 73.766 212.991 73.658L210.543 66.044L208.167 73.658C208.083 73.886 207.915 74 207.663 74ZM239.424 74.09C238.476 74.09 237.63 73.88 236.886 73.46C236.154 73.028 235.578 72.434 235.158 71.678C234.738 70.922 234.528 70.058 234.528 69.086C234.528 68.102 234.726 67.238 235.122 66.494C235.518 65.738 236.064 65.144 236.76 64.712C237.456 64.28 238.254 64.064 239.154 64.064C240.042 64.064 240.828 64.274 241.512 64.694C242.196 65.102 242.73 65.672 243.114 66.404C243.498 67.124 243.69 67.958 243.69 68.906C243.69 69.062 243.642 69.188 243.546 69.284C243.45 69.368 243.324 69.41 243.168 69.41H235.626C235.662 70.13 235.848 70.766 236.184 71.318C236.52 71.87 236.964 72.302 237.516 72.614C238.08 72.926 238.716 73.082 239.424 73.082C239.892 73.082 240.36 73.004 240.828 72.848C241.308 72.68 241.686 72.464 241.962 72.2C242.058 72.104 242.172 72.056 242.304 72.056C242.448 72.044 242.568 72.08 242.664 72.164C242.796 72.272 242.862 72.392 242.862 72.524C242.874 72.656 242.82 72.776 242.7 72.884C242.316 73.232 241.812 73.52 241.188 73.748C240.576 73.976 239.988 74.09 239.424 74.09ZM239.154 65.072C238.53 65.072 237.966 65.216 237.462 65.504C236.958 65.792 236.544 66.194 236.22 66.71C235.908 67.214 235.716 67.802 235.644 68.474H242.646C242.562 67.466 242.202 66.65 241.566 66.026C240.93 65.39 240.126 65.072 239.154 65.072ZM264.487 74C263.803 74 263.239 73.724 262.795 73.172C262.363 72.62 262.147 71.906 262.147 71.03V60.482C262.147 60.314 262.195 60.182 262.291 60.086C262.399 59.99 262.531 59.942 262.687 59.942C262.855 59.942 262.987 59.99 263.083 60.086C263.179 60.182 263.227 60.314 263.227 60.482V71.03C263.227 71.582 263.341 72.038 263.569 72.398C263.809 72.746 264.115 72.92 264.487 72.92H264.937C265.237 72.92 265.387 73.1 265.387 73.46C265.387 73.616 265.339 73.748 265.243 73.856C265.147 73.952 265.015 74 264.847 74H264.487ZM284.368 74C284.212 74 284.08 73.952 283.972 73.856C283.876 73.748 283.828 73.616 283.828 73.46V64.694C283.828 64.526 283.876 64.394 283.972 64.298C284.08 64.202 284.212 64.154 284.368 64.154C284.536 64.154 284.668 64.202 284.764 64.298C284.86 64.394 284.908 64.526 284.908 64.694V65.81C285.256 65.258 285.694 64.826 286.222 64.514C286.762 64.202 287.356 64.046 288.004 64.046C288.46 64.046 288.814 64.1 289.066 64.208C289.318 64.316 289.414 64.508 289.354 64.784C289.318 64.964 289.234 65.072 289.102 65.108C288.97 65.144 288.808 65.15 288.616 65.126C288.436 65.09 288.232 65.072 288.004 65.072C287.404 65.072 286.87 65.198 286.402 65.45C285.934 65.702 285.568 66.05 285.304 66.494C285.04 66.926 284.908 67.424 284.908 67.988V73.46C284.908 73.616 284.86 73.748 284.764 73.856C284.668 73.952 284.536 74 284.368 74ZM309.829 78.266C309.757 78.266 309.673 78.248 309.577 78.212C309.253 78.08 309.163 77.858 309.307 77.546L311.107 73.658C311.083 73.622 311.059 73.58 311.035 73.532L307.093 64.892C306.937 64.568 307.015 64.334 307.327 64.19C307.651 64.034 307.885 64.112 308.029 64.424L311.683 72.416L315.355 64.442C315.499 64.142 315.721 64.052 316.021 64.172C316.345 64.304 316.435 64.526 316.291 64.838L310.243 77.942C310.135 78.158 309.997 78.266 309.829 78.266Z" fill="#444444"/>
</svg>