<svg viewBox="0 0 15 15" fill="none" xmlns="http://www.w3.org/2000/svg">
<g clip-path="url(#clip0)">
<path d="M10.8074 2.19754C10.4155 1.52565 9.88775 0.997767 9.21585 0.606032C8.54412 0.214119 7.81628 0.0141602 7.0246 0.0141602C6.23277 0.0141602 5.50492 0.214119 4.8332 0.606032C4.16131 0.997767 3.63358 1.52565 3.24169 2.19754C2.84977 2.86926 2.65784 3.59711 2.65784 4.38878V4.56469C2.65784 4.62083 2.66586 4.65272 2.67386 4.67679V4.69266V4.78069V4.8607C2.73785 5.45257 2.89413 6.14954 3.15364 6.94804C3.41399 7.7489 3.73424 8.56498 4.11335 9.39536C4.494 10.2287 4.85725 10.9789 5.20104 11.6506C5.545 12.3225 5.89682 12.9781 6.25682 13.626C6.52061 14.2259 7.50265 14.2136 7.80023 13.626C8.13514 12.9648 8.51203 12.3225 8.85601 11.6506C9.19979 10.9788 9.5564 10.2256 9.93568 9.39536C10.3161 8.56209 10.6359 7.74669 10.8954 6.94804C11.1556 6.14716 11.3192 5.45259 11.3832 4.8607V4.74878C11.3832 4.70868 11.3912 4.68479 11.3992 4.67677V4.56467V4.38876C11.3992 3.59711 11.1993 2.86926 10.8074 2.19754ZM10.5195 4.53277V4.62865C10.5115 4.63668 10.5035 4.6527 10.5035 4.67677V4.78067C10.4475 5.34849 10.2795 6.02822 10.0077 6.8361C9.7357 7.6438 9.39975 8.46752 9.00785 9.30731C8.61613 10.1471 8.26108 10.8572 7.95223 11.4586C7.64512 12.0568 7.33651 12.6343 7.02459 13.1941C6.72055 12.6502 6.40712 12.0752 6.09678 11.4666C5.78319 10.8517 5.43939 10.1317 5.04918 9.29928C4.65574 8.46037 4.32936 7.64381 4.05739 6.8361C3.78543 6.02822 3.61754 5.34849 3.55355 4.78067V4.69264V4.61279C3.54553 4.60476 3.53751 4.57269 3.53751 4.53277V4.38878C3.53751 3.42906 3.88335 2.60738 4.56121 1.92559C5.243 1.2397 6.06485 0.893865 7.02459 0.893865C7.99217 0.893865 8.81401 1.2397 9.49578 1.92559C10.1735 2.60738 10.5195 3.42906 10.5195 4.38878V4.53277H10.5195Z" fill="#444444"/>
<path d="M7.0247 2.97314C6.58467 2.97314 6.2008 3.13319 5.8889 3.44507C5.57701 3.75695 5.42517 4.14084 5.42517 4.5807C5.42517 5.02055 5.57703 5.40444 5.8889 5.71632C6.20078 6.02821 6.58467 6.18825 7.0247 6.18825C7.46456 6.18825 7.84845 6.02821 8.16033 5.71632C8.47222 5.40444 8.63206 5.02055 8.63206 4.5807C8.63206 4.14084 8.47222 3.75695 8.16033 3.44507C7.84845 3.13319 7.46456 2.97314 7.0247 2.97314ZM7.53639 5.09254C7.25059 5.37457 6.79675 5.37645 6.51286 5.09254C6.22879 4.80863 6.23289 4.35683 6.51286 4.07686C6.80069 3.78903 7.24651 3.79107 7.53639 4.07686C7.82234 4.35891 7.82644 4.80676 7.53639 5.09254Z" fill="#444444"/>
</g>
<defs>
<clipPath id="clip0">
<rect width="14.0571" height="14.0571" fill="white" transform="translate(0 0.0141602)"/>
</clipPath>
</defs>
</svg>