<svg viewBox="0 0 18 18" fill="none" xmlns="http://www.w3.org/2000/svg">
    <g clip-path="url(#clip0)">
        <path d="M17.625 3.375H0.375012C0.168012 3.375 0 3.54301 0 3.75001C0 3.95701 0.168012 4.12502 0.375012 4.12502H17.625C17.832 4.12502 18 3.95701 18 3.75001C18 3.54301 17.832 3.375 17.625 3.375Z" fill="#444444"/>
        <path d="M17.625 8.625H0.375012C0.168012 8.625 0 8.79301 0 9.00001C0 9.20702 0.168012 9.37503 0.375012 9.37503H17.625C17.832 9.37503 18 9.20702 18 9.00001C18 8.79301 17.832 8.625 17.625 8.625Z" fill="#444444"/>
        <path d="M17.625 13.875H0.375012C0.168012 13.875 0 14.043 0 14.25C0 14.457 0.168012 14.625 0.375012 14.625H17.625C17.832 14.625 18 14.457 18 14.25C18 14.043 17.832 13.875 17.625 13.875Z" fill="#444444"/>
    </g>
    <defs>
        <clipPath id="clip0">
            <rect width="18" height="18" fill="white"/>
        </clipPath>
    </defs>
</svg>