<svg viewBox="0 0 15 15" fill="none" xmlns="http://www.w3.org/2000/svg">
<g clip-path="url(#clip0)">
<path d="M13.6346 11.589L10.9988 9.82772C10.5601 9.53428 10.1375 9.54453 9.77206 9.845C8.74589 10.6864 8.13733 10.4451 8.03834 10.3953C7.4579 10.1048 6.90967 9.83065 6.06419 8.98576C5.01459 7.93557 4.63564 7.26522 4.36211 6.71904C4.25287 6.50057 4.12694 5.76609 4.84532 5.00027C5.18123 4.64269 5.21227 4.2034 4.93289 3.76412C4.71764 3.42557 4.71764 3.42557 4.54836 3.17664C4.38144 2.93064 4.04787 2.43923 3.16813 1.12254C2.97806 0.838473 2.70805 0.699951 2.34286 0.699951C1.92876 0.699951 1.71907 0.90993 1.55009 1.07862L0.671521 1.95719C0.0494928 2.57892 0 2.93533 0 3.33567C0 3.83967 0.72775 7.12494 4.18551 10.5707C7.63215 14.0291 10.9142 14.7571 11.4179 14.7571H11.4372C11.8341 14.7512 12.1867 14.6988 12.7996 14.0856L13.6782 13.207C13.8472 13.0383 14.0571 12.8283 14.0571 12.4142C14.0571 12.0488 13.9186 11.7787 13.6346 11.589ZM13.2644 12.7929L12.3858 13.6715C11.8926 14.1646 11.6783 14.1679 11.4179 14.1714C11.3819 14.1702 8.22841 13.7986 4.59961 10.1566C1.00011 6.56969 0.5863 3.36378 0.585714 3.33567C0.585714 3.0759 0.585714 2.87119 1.08533 2.37129L1.9639 1.49272C2.11824 1.33897 2.17974 1.28567 2.34286 1.28567C2.53409 1.28567 2.61434 1.34804 2.6814 1.4482C3.56261 2.76723 3.89676 3.25982 4.06398 3.50552C4.22886 3.74801 4.22886 3.74801 4.43884 4.07864C4.60518 4.34017 4.52728 4.48367 4.41834 4.59964C3.50433 5.57309 3.63934 6.58257 3.83819 6.98086C4.13192 7.56833 4.53811 8.28788 5.65009 9.39986C6.56234 10.3121 7.17969 10.6205 7.77624 10.9192C7.94053 11.0009 8.1549 11.0463 8.3804 11.0463C8.76873 11.0463 9.38929 10.9166 10.1434 10.2981C10.2503 10.2099 10.3264 10.1997 10.3745 10.1997C10.4585 10.1997 10.5593 10.2386 10.6735 10.3153L13.3092 12.076C13.409 12.1425 13.4714 12.2227 13.4714 12.4142C13.4714 12.5774 13.4181 12.6392 13.2644 12.7929Z" fill="#444444"/>
</g>
<defs>
<clipPath id="clip0">
<rect width="14.0571" height="14.0571" fill="white" transform="translate(0 0.699951)"/>
</clipPath>
</defs>
</svg>