<svg viewBox="0 0 18 18" fill="none" xmlns="http://www.w3.org/2000/svg">
    <path d="M9.09843 17.8313C4.23281 17.8524 0.232027 13.8024 0.348042 8.85589C0.457027 4.14847 4.35586 0.253154 9.21093 0.305888C14.0168 0.358622 17.993 4.3594 17.8629 9.3094C17.7398 14.0028 13.8727 17.8559 9.09843 17.8313ZM1.41328 9.07737C1.45195 13.4754 5.00625 16.8574 9.2039 16.8047C13.2926 16.752 16.7871 13.4297 16.7906 9.07386C16.7941 4.67229 13.2082 1.27972 8.99648 1.33597C4.90781 1.39222 1.44492 4.72151 1.41328 9.07737Z" fill="#828282"/>
    <path d="M9.05969 12.6668C7.87141 12.6282 6.68313 12.593 5.49485 12.5438C5.24172 12.5332 4.98157 12.484 4.73899 12.4102C4.16243 12.2344 3.9093 11.7739 3.83196 11.2254C3.74407 10.6067 3.6843 9.98089 3.67727 9.35511C3.67024 8.51488 3.72297 7.67113 3.76868 6.82738C3.78977 6.46527 3.88469 6.10667 4.08508 5.7973C4.36985 5.35081 4.81633 5.19964 5.31555 5.17152C7.63235 5.03792 9.95266 5.03089 12.2695 5.14339C12.5261 5.15745 12.7827 5.17503 13.0394 5.20316C13.6159 5.27347 14.0343 5.57581 14.1925 6.13831C14.3085 6.55667 14.3894 6.99613 14.4034 7.43206C14.4351 8.37777 14.4281 9.32698 14.407 10.2762C14.3964 10.67 14.3296 11.0672 14.2347 11.4539C14.0765 12.1078 13.6265 12.4664 12.9585 12.5227C12.3855 12.5684 11.8124 12.6 11.2394 12.6106C10.5152 12.6246 9.78743 12.6141 9.05969 12.6141C9.05969 12.6282 9.05969 12.6493 9.05969 12.6668ZM10.8562 8.74339C9.8718 8.23011 8.91907 7.73441 7.95579 7.23167C7.95579 8.2512 7.95579 9.23558 7.95579 10.2481C8.9261 9.74534 9.87883 9.25316 10.8562 8.74339Z" fill="#828282"/>
</svg>
