<svg viewBox="0 0 18 18" fill="none" xmlns="http://www.w3.org/2000/svg">
    <path d="M9.09843 17.8313C4.23281 17.8524 0.232027 13.8024 0.348042 8.85589C0.457027 4.14847 4.35586 0.253154 9.20742 0.305888C14.0168 0.355107 17.993 4.3594 17.8629 9.3094C17.7398 13.9992 13.8727 17.8524 9.09843 17.8313ZM16.7977 9.06331C16.759 4.65472 13.1871 1.26214 8.97187 1.33597C4.87265 1.40628 1.40976 4.75315 1.42031 9.0844C1.43085 13.4965 5.03086 16.8821 9.24609 16.8047C13.3418 16.7274 16.7695 13.3875 16.7977 9.06331Z" fill="#828282"/>
    <path d="M3.48042 8.09302C3.84253 8.19498 4.19409 8.29693 4.54917 8.39537C4.55972 8.37779 4.57026 8.3567 4.58081 8.33912C3.87417 7.7942 3.49097 7.09459 3.50854 6.1981C3.51558 5.73404 3.65269 5.24537 3.85308 4.99576C5.22417 6.58834 6.94331 7.48834 9.02104 7.62193C9.03862 7.23873 9.01753 6.8731 9.07729 6.52154C9.33393 5.04146 11.032 4.10982 12.4312 4.65826C12.7617 4.78834 13.057 4.97115 13.3242 5.2067C13.3769 5.2524 13.4859 5.29107 13.5492 5.26998C13.9746 5.12584 14.3929 4.96763 14.8148 4.80943C14.8746 4.78834 14.9273 4.75318 15.0187 4.70396C14.8253 5.2981 14.4667 5.71998 14.0062 6.08912C14.1503 6.06451 14.2945 6.04341 14.4351 6.01177C14.5898 5.97662 14.741 5.93091 14.8921 5.8817C15.0328 5.83599 15.1734 5.78326 15.3527 5.71646C15.0363 6.19107 14.6812 6.56724 14.2664 6.88716C14.1468 6.97857 14.1011 7.06646 14.1011 7.22115C14.1187 9.17232 13.4578 10.8704 12.1605 12.3118C11.148 13.4368 9.87885 14.1364 8.38823 14.4247C7.25972 14.6426 6.14175 14.6215 5.02729 14.3297C4.34526 14.1504 3.7019 13.8692 3.10073 13.5001C3.08315 13.4895 3.06909 13.4719 3.03394 13.4403C4.40151 13.5563 5.61792 13.2258 6.73237 12.3891C5.5687 12.2766 4.79878 11.7001 4.36636 10.6137C4.74253 10.6137 5.08706 10.6137 5.43159 10.6137C5.43511 10.5961 5.43862 10.5751 5.44214 10.5575C4.71792 10.3606 4.15894 9.94576 3.79331 9.28834C3.57886 8.91216 3.48394 8.50787 3.48042 8.09302Z" fill="#828282"/>
</svg>
