<svg viewBox="0 0 18 18" fill="none" xmlns="http://www.w3.org/2000/svg">
    <path d="M9.10195 17.8312C4.23281 17.8559 0.232027 13.8023 0.348042 8.85937C0.453511 4.14843 4.35937 0.246088 9.22148 0.305853C14.0238 0.365619 17.9894 4.36288 17.8629 9.30585C17.7434 13.9992 13.8762 17.8523 9.10195 17.8312ZM1.41328 9.06679C1.44492 13.3769 4.85507 16.7379 8.95078 16.7976C13.2961 16.8609 16.7836 13.4332 16.7941 9.08085C16.7977 4.76718 13.3559 1.41679 9.25312 1.33593C5.03086 1.25507 1.44843 4.65117 1.41328 9.06679Z" fill="#828282"/>
    <path d="M14.5265 9.18628C14.5265 9.95269 14.5054 10.7226 14.5301 11.489C14.5828 12.9621 13.5211 14.1925 12.1183 14.5441C11.8441 14.6144 11.5523 14.6566 11.2711 14.6601C9.78396 14.6707 8.29685 14.6847 6.80974 14.6601C5.56873 14.639 4.59138 14.1117 3.93045 13.0394C3.67732 12.6281 3.55076 12.171 3.55076 11.6859C3.54724 10.016 3.53318 8.34605 3.55427 6.67964C3.56834 5.5898 4.11326 4.78472 5.01677 4.20816C5.57927 3.84956 6.20154 3.68784 6.86599 3.68784C8.31795 3.68433 9.7699 3.67026 11.2219 3.69136C12.5015 3.70894 13.514 4.24331 14.1715 5.36831C14.407 5.77261 14.5265 6.21909 14.5265 6.6937C14.523 7.52339 14.5265 8.35659 14.5265 9.18628ZM4.35935 9.17925C4.35935 9.98081 4.35935 10.7859 4.35935 11.5875C4.35935 11.9074 4.41912 12.2167 4.57029 12.5015C5.05545 13.4156 5.84998 13.8304 6.85193 13.8445C8.30388 13.8656 9.75935 13.855 11.2113 13.8445C11.4609 13.8445 11.714 13.8023 11.9566 13.739C12.9234 13.4789 13.7461 12.6421 13.7179 11.4152C13.6828 9.86831 13.7109 8.32144 13.7109 6.77456C13.7109 6.43355 13.6476 6.11011 13.4824 5.81128C12.9867 4.92183 12.1957 4.51753 11.2113 4.50347C9.76287 4.48237 8.31795 4.48941 6.86951 4.50347C6.58123 4.50698 6.28591 4.55972 6.00818 4.64409C5.06248 4.93589 4.31716 5.77612 4.35584 6.90816C4.38045 7.66753 4.35935 8.42339 4.35935 9.17925Z" fill="#828282"/>
    <path d="M9.03867 6.43354C10.4695 6.43003 11.6297 7.5726 11.6297 8.97886C11.6262 10.3781 10.4695 11.5207 9.05274 11.5242C7.62539 11.5277 6.46875 10.3886 6.46875 8.97534C6.46875 7.5726 7.61484 6.43706 9.03867 6.43354ZM9.03867 7.24917C8.07539 7.25268 7.28086 8.03667 7.28438 8.98237C7.28789 9.92808 8.07891 10.705 9.04922 10.7085C10.016 10.7085 10.8105 9.93159 10.8141 8.98589C10.8105 8.02612 10.0125 7.24565 9.03867 7.24917Z" fill="#828282"/>
    <path d="M12.4734 6.21209C12.4805 6.51092 12.2344 6.77459 11.9426 6.78514C11.6437 6.79569 11.3871 6.54256 11.3836 6.22967C11.3801 5.92381 11.6156 5.66717 11.9074 5.65662C12.2062 5.64608 12.4664 5.90272 12.4734 6.21209Z" fill="#828282"/>
</svg>
