<svg viewBox="0 0 18 18" fill="none" xmlns="http://www.w3.org/2000/svg">
    <path d="M9.09843 17.8312C4.23281 17.8523 0.232027 13.8023 0.348042 8.85583C0.457027 4.14489 4.35937 0.253093 9.21093 0.305828C14.0168 0.358562 17.993 4.35934 17.8629 9.31286C17.7398 14.0027 13.8691 17.8558 9.09843 17.8312ZM1.41328 9.08083C1.45195 13.4859 5.02382 16.8785 9.24257 16.8047C13.3277 16.7308 16.7906 13.4015 16.7906 9.07028C16.7906 4.6652 13.1906 1.25856 8.95781 1.33942C4.87265 1.41325 1.4414 4.75309 1.41328 9.08083Z" fill="#828282"/>
    <path d="M7.27026 15.2367C7.27026 13.166 7.27026 11.1129 7.27026 9.03867C6.81323 9.03867 6.37026 9.03867 5.91675 9.03867C5.91675 8.33555 5.91675 7.65352 5.91675 6.95039C5.97651 6.94688 6.03628 6.93984 6.09956 6.93984C6.42651 6.93984 6.75698 6.93281 7.08394 6.94336C7.22808 6.94688 7.2773 6.9082 7.27378 6.76055C7.26675 6.22617 7.26675 5.69531 7.27026 5.16094C7.27378 4.55977 7.44253 4.01484 7.87144 3.57891C8.28628 3.15703 8.81714 2.92852 9.3937 2.89336C10.3218 2.84063 11.2535 2.84766 12.1851 2.83008C12.1957 2.83008 12.2062 2.84062 12.2273 2.85117C12.2273 3.55781 12.2273 4.26797 12.2273 4.9957C12.1605 4.99922 12.0972 5.00273 12.0375 5.00273C11.6156 5.00273 11.1937 5.00273 10.7718 5.00273C10.3464 5.00625 10.0968 5.25938 10.0968 5.67773C10.0968 6.075 10.0968 6.47578 10.1003 6.87305C10.1003 6.88359 10.1074 6.89414 10.1179 6.93281C10.814 6.93281 11.5171 6.93281 12.2554 6.93281C12.164 7.64648 12.0796 8.32852 11.9882 9.03516C11.3519 9.03516 10.7296 9.03516 10.0898 9.03516C10.0898 11.1164 10.0898 13.1766 10.0898 15.2438C9.14409 15.2367 8.223 15.2367 7.27026 15.2367Z" fill="#828282"/>
</svg>
